Mailpile-Bold.ufo
<glyph name="numbersign" format="1">
  <advance width="1511"/>
  <unicode hex="0023"/>
  <outline>
    <contour>
      <point x="1039" y="1479" type="line"/>
      <point x="972" y="1131" type="line"/>
      <point x="694" y="1131" type="line"/>
      <point x="763" y="1479" type="line"/>
      <point x="539" y="1479" type="line"/>
      <point x="471" y="1131" type="line"/>
      <point x="183" y="1131" type="line"/>
      <point x="147" y="925" type="line"/>
      <point x="432" y="925" type="line"/>
      <point x="355" y="543" type="line"/>
      <point x="81" y="543" type="line"/>
      <point x="44" y="337" type="line"/>
      <point x="314" y="337" type="line"/>
      <point x="241" y="-1" type="line"/>
      <point x="465" y="-1" type="line"/>
      <point x="538" y="337" type="line"/>
      <point x="817" y="337" type="line"/>
      <point x="750" y="-1" type="line"/>
      <point x="974" y="-1" type="line"/>
      <point x="1037" y="337" type="line"/>
      <point x="1325" y="337" type="line"/>
      <point x="1365" y="543" type="line"/>
      <point x="1078" y="543" type="line"/>
      <point x="1153" y="925" type="line"/>
      <point x="1431" y="925" type="line"/>
      <point x="1465" y="1131" type="line"/>
      <point x="1193" y="1131" type="line"/>
      <point x="1263" y="1479" type="line"/>
    </contour>
    <contour>
      <point x="857" y="543" type="line"/>
      <point x="579" y="543" type="line"/>
      <point x="656" y="925" type="line"/>
      <point x="932" y="925" type="line"/>
    </contour>
  </outline>
</glyph>
<glyph name="ampersand" format="1">
  <advance width="1396"/>
  <unicode hex="0026"/>
  <outline>
    <contour>
      <point x="454" y="1522"/>
      <point x="238" y="1426"/>
      <point x="238" y="1189" type="curve" smooth="yes"/>
      <point x="238" y="1060"/>
      <point x="312" y="954"/>
      <point x="382" y="854" type="curve"/>
      <point x="219" y="759"/>
      <point x="49" y="597"/>
      <point x="49" y="396" type="curve" smooth="yes"/>
      <point x="49" y="117"/>
      <point x="262" y="-33"/>
      <point x="533" y="-33" type="curve" smooth="yes"/>
      <point x="711" y="-33"/>
      <point x="849" y="26"/>
      <point x="951" y="132" type="curve"/>
      <point x="1056" y="-2" type="line"/>
      <point x="1347" y="-2" type="line"/>
      <point x="1082" y="333" type="line"/>
      <point x="1127" y="435"/>
      <point x="1157" y="554"/>
      <point x="1175" y="689" type="curve"/>
      <point x="959" y="732" type="line"/>
      <point x="951" y="664"/>
      <point x="938" y="601"/>
      <point x="922" y="543" type="curve"/>
      <point x="726" y="795" type="line"/>
      <point x="863" y="899"/>
      <point x="943" y="1024"/>
      <point x="943" y="1175" type="curve" smooth="yes"/>
      <point x="943" y="1377"/>
      <point x="770" y="1522"/>
      <point x="604" y="1522" type="curve" smooth="yes"/>
    </contour>
    <contour>
      <point x="810" y="314" type="line"/>
      <point x="743" y="232"/>
      <point x="654" y="185"/>
      <point x="539" y="185" type="curve" smooth="yes"/>
      <point x="400" y="185"/>
      <point x="283" y="269"/>
      <point x="283" y="389" type="curve" smooth="yes"/>
      <point x="283" y="524"/>
      <point x="408" y="612"/>
      <point x="525" y="679" type="curve"/>
    </contour>
    <contour>
      <point x="665" y="1300"/>
      <point x="722" y="1246"/>
      <point x="721" y="1170" type="curve" smooth="yes"/>
      <point x="720" y="1090"/>
      <point x="653" y="1018"/>
      <point x="589" y="969" type="curve"/>
      <point x="560" y="998"/>
      <point x="461" y="1115"/>
      <point x="461" y="1190" type="curve" smooth="yes"/>
      <point x="461" y="1264"/>
      <point x="541" y="1300"/>
      <point x="593" y="1300" type="curve" smooth="yes"/>
    </contour>
  </outline>
</glyph>
<glyph name="parenright" format="1">
  <advance width="608"/>
  <unicode hex="0029"/>
  <outline>
    <contour>
      <point x="44" y="1449" type="line"/>
      <point x="244" y="1283"/>
      <point x="339" y="1081"/>
      <point x="339" y="748" type="curve" smooth="yes"/>
      <point x="339" y="411"/>
      <point x="248" y="196"/>
      <point x="39" y="24" type="curve"/>
      <point x="166" y="-162" type="line"/>
      <point x="457" y="39"/>
      <point x="562" y="359"/>
      <point x="560" y="742" type="curve" smooth="yes"/>
      <point x="558" y="1096"/>
      <point x="458" y="1418"/>
      <point x="147" y="1659" type="curve"/>
    </contour>
  </outline>
</glyph>
<glyph name="plus" format="1">
  <advance width="1242"/>
  <unicode hex="002B"/>
  <outline>
    <contour>
      <point x="487" y="1342" type="line"/>
      <point x="487" y="900" type="line"/>
      <point x="54" y="900" type="line"/>
      <point x="54" y="625" type="line"/>
      <point x="487" y="625" type="line"/>
      <point x="487" y="181" type="line"/>
      <point x="764" y="181" type="line"/>
      <point x="764" y="625" type="line"/>
      <point x="1196" y="625" type="line"/>
      <point x="1196" y="900" type="line"/>
      <point x="764" y="900" type="line"/>
      <point x="764" y="1342" type="line"/>
    </contour>
  </outline>
</glyph>
<glyph name="slash" format="1">
  <advance width="772"/>
  <unicode hex="002F"/>
  <outline>
    <contour>
      <point x="571" y="1841" type="line"/>
      <point x="-71" y="-343" type="line"/>
      <point x="201" y="-343" type="line"/>
      <point x="843" y="1841" type="line"/>
    </contour>
  </outline>
</glyph>
<glyph name="two" format="1">
  <advance width="1169"/>
  <unicode hex="0032"/>
  <outline>
    <contour>
      <point x="338" y="1529"/>
      <point x="130" y="1394"/>
      <point x="97" y="1186" type="curve" smooth="yes"/>
      <point x="91" y="1147"/>
      <point x="92" y="1112"/>
      <point x="92" y="1073" type="curve"/>
      <point x="329" y="1073" type="line"/>
      <point x="329" y="1095"/>
      <point x="330" y="1116"/>
      <point x="334" y="1137" type="curve" smooth="yes"/>
      <point x="356" y="1250"/>
      <point x="468" y="1300"/>
      <point x="582" y="1300" type="curve" smooth="yes"/>
      <point x="710" y="1300"/>
      <point x="830" y="1248"/>
      <point x="830" y="1124" type="curve" smooth="yes"/>
      <point x="830" y="993"/>
      <point x="747" y="899"/>
      <point x="632" y="781" type="curve" smooth="yes"/>
      <point x="632" y="781"/>
      <point x="158" y="273"/>
      <point x="140" y="256" type="curve" smooth="yes"/>
      <point x="80" y="197"/>
      <point x="64" y="140"/>
      <point x="75" y="92" type="curve" smooth="yes"/>
      <point x="89" y="29"/>
      <point x="128" y="-4"/>
      <point x="195" y="-4" type="curve" smooth="yes"/>
      <point x="1098" y="-4" type="line"/>
      <point x="1098" y="348" type="line"/>
      <point x="861" y="348" type="line"/>
      <point x="861" y="228" type="line"/>
      <point x="437" y="229" type="line"/>
      <point x="795" y="621" type="line" smooth="yes"/>
      <point x="947" y="788"/>
      <point x="1061" y="931"/>
      <point x="1061" y="1125" type="curve" smooth="yes"/>
      <point x="1061" y="1385"/>
      <point x="872" y="1529"/>
      <point x="581" y="1529" type="curve" smooth="yes"/>
    </contour>
  </outline>
</glyph>
<glyph name="three" format="1">
  <advance width="1141"/>
  <unicode hex="0033"/>
  <outline>
    <contour>
      <point x="286" y="1494" type="line" smooth="yes"/>
      <point x="160" y="1494"/>
      <point x="110" y="1442"/>
      <point x="110" y="1315" type="curve" smooth="yes"/>
      <point x="110" y="1142" type="line"/>
      <point x="347" y="1142" type="line"/>
      <point x="347" y="1262" type="line"/>
      <point x="718" y="1262" type="line"/>
      <point x="334" y="831" type="line"/>
      <point x="385" y="680" type="line"/>
      <point x="511" y="680" type="line" smooth="yes"/>
      <point x="684" y="680"/>
      <point x="838" y="607"/>
      <point x="840" y="440" type="curve" smooth="yes"/>
      <point x="842" y="289"/>
      <point x="724" y="207"/>
      <point x="561" y="207" type="curve" smooth="yes"/>
      <point x="432" y="207"/>
      <point x="342" y="275"/>
      <point x="263" y="369" type="curve" smooth="yes"/>
      <point x="84" y="209" type="line" smooth="yes"/>
      <point x="161" y="108"/>
      <point x="314" y="-17"/>
      <point x="553" y="-19" type="curve" smooth="yes"/>
      <point x="866" y="-22"/>
      <point x="1064" y="170"/>
      <point x="1064" y="443" type="curve" smooth="yes"/>
      <point x="1064" y="711"/>
      <point x="865" y="879"/>
      <point x="615" y="903" type="curve"/>
      <point x="616" y="810" type="line"/>
      <point x="1068" y="1316" type="line"/>
      <point x="1068" y="1494" type="line"/>
    </contour>
  </outline>
</glyph>
<glyph name="eight" format="1">
  <advance width="1195"/>
  <unicode hex="0038"/>
  <outline>
    <contour>
      <point x="311" y="1527"/>
      <point x="96" y="1375"/>
      <point x="96" y="1140" type="curve"/>
      <point x="96" y="993"/>
      <point x="178" y="896"/>
      <point x="301" y="819" type="curve"/>
      <point x="160" y="726"/>
      <point x="65" y="597"/>
      <point x="65" y="419" type="curve"/>
      <point x="65" y="144"/>
      <point x="291" y="-21"/>
      <point x="590" y="-21" type="curve" smooth="yes"/>
      <point x="889" y="-21"/>
      <point x="1105" y="145"/>
      <point x="1105" y="413" type="curve" smooth="yes"/>
      <point x="1105" y="588"/>
      <point x="1016" y="710"/>
      <point x="852" y="810" type="curve"/>
      <point x="980" y="878"/>
      <point x="1071" y="986"/>
      <point x="1071" y="1126" type="curve" smooth="yes"/>
      <point x="1071" y="1378"/>
      <point x="875" y="1527"/>
      <point x="590" y="1527" type="curve" smooth="yes"/>
    </contour>
    <contour>
      <point x="730" y="615"/>
      <point x="864" y="550"/>
      <point x="864" y="405" type="curve" smooth="yes"/>
      <point x="864" y="270"/>
      <point x="738" y="207"/>
      <point x="587" y="207" type="curve" smooth="yes"/>
      <point x="440" y="207"/>
      <point x="301" y="280"/>
      <point x="301" y="430" type="curve" smooth="yes"/>
      <point x="301" y="562"/>
      <point x="408" y="645"/>
      <point x="532" y="705" type="curve"/>
    </contour>
    <contour>
      <point x="714" y="1300"/>
      <point x="844" y="1252"/>
      <point x="844" y="1131" type="curve" smooth="yes"/>
      <point x="844" y="1028"/>
      <point x="703" y="971"/>
      <point x="592" y="935" type="curve"/>
      <point x="466" y="984"/>
      <point x="340" y="1034"/>
      <point x="337" y="1146" type="curve" smooth="yes"/>
      <point x="334" y="1255"/>
      <point x="462" y="1300"/>
      <point x="589" y="1300" type="curve" smooth="yes"/>
    </contour>
  </outline>
</glyph>
<glyph name="nine" format="1">
  <advance width="1193"/>
  <unicode hex="0039"/>
  <outline>
    <contour>
      <point x="291" y="1527"/>
      <point x="60" y="1341"/>
      <point x="60" y="1030" type="curve"/>
      <point x="60" y="736"/>
      <point x="271" y="533"/>
      <point x="545" y="533" type="curve" smooth="yes"/>
      <point x="663" y="533"/>
      <point x="772" y="570"/>
      <point x="867" y="632" type="curve"/>
      <point x="839" y="375"/>
      <point x="713" y="216"/>
      <point x="507" y="216" type="curve" smooth="yes"/>
      <point x="413" y="216"/>
      <point x="342" y="243"/>
      <point x="192" y="344" type="curve"/>
      <point x="66" y="139" type="line"/>
      <point x="258" y="18"/>
      <point x="375" y="-21"/>
      <point x="514" y="-21" type="curve" smooth="yes"/>
      <point x="884" y="-21"/>
      <point x="1115" y="232"/>
      <point x="1114" y="817" type="curve" smooth="yes"/>
      <point x="1114" y="1231"/>
      <point x="948" y="1527"/>
      <point x="576" y="1527" type="curve" smooth="yes"/>
    </contour>
    <contour>
      <point x="765" y="1291"/>
      <point x="856" y="1103"/>
      <point x="863" y="908" type="curve"/>
      <point x="779" y="830"/>
      <point x="669" y="769"/>
      <point x="557" y="769" type="curve" smooth="yes"/>
      <point x="416" y="769"/>
      <point x="311" y="867"/>
      <point x="311" y="1028" type="curve" smooth="yes"/>
      <point x="311" y="1187"/>
      <point x="410" y="1291"/>
      <point x="579" y="1291" type="curve" smooth="yes"/>
    </contour>
  </outline>
</glyph>
<glyph name="equal" format="1">
  <advance width="1107"/>
  <unicode hex="003D"/>
  <outline>
    <contour>
      <point x="133" y="638" type="line"/>
      <point x="133" y="420" type="line"/>
      <point x="974" y="420" type="line"/>
      <point x="974" y="638" type="line"/>
    </contour>
    <contour>
      <point x="133" y="1023" type="line"/>
      <point x="133" y="806" type="line"/>
      <point x="974" y="806" type="line"/>
      <point x="974" y="1023" type="line"/>
    </contour>
  </outline>
</glyph>
<glyph name="B" format="1">
  <advance width="1173"/>
  <unicode hex="0042"/>
  <outline>
    <contour>
      <point x="10" y="1494" type="line"/>
      <point x="10" y="1263" type="line"/>
      <point x="137" y="1263" type="line"/>
      <point x="137" y="-1" type="line"/>
      <point x="621" y="-1" type="line" smooth="yes"/>
      <point x="936" y="-1"/>
      <point x="1093" y="212"/>
      <point x="1093" y="443" type="curve" smooth="yes"/>
      <point x="1093" y="602"/>
      <point x="1018" y="715"/>
      <point x="912" y="781" type="curve"/>
      <point x="993" y="859"/>
      <point x="1032" y="970"/>
      <point x="1032" y="1074" type="curve" smooth="yes"/>
      <point x="1032" y="1362"/>
      <point x="853" y="1494"/>
      <point x="555" y="1494" type="curve" smooth="yes"/>
    </contour>
    <contour>
      <point x="736" y="642"/>
      <point x="851" y="598"/>
      <point x="851" y="446" type="curve" smooth="yes"/>
      <point x="851" y="306"/>
      <point x="763" y="230"/>
      <point x="619" y="230" type="curve" smooth="yes"/>
      <point x="384" y="230" type="line"/>
      <point x="384" y="642" type="line"/>
      <point x="584" y="642" type="line" smooth="yes"/>
    </contour>
    <contour>
      <point x="701" y="1263"/>
      <point x="787" y="1206"/>
      <point x="787" y="1075" type="curve" smooth="yes"/>
      <point x="787" y="959"/>
      <point x="707" y="873"/>
      <point x="584" y="873" type="curve" smooth="yes"/>
      <point x="383" y="873" type="line"/>
      <point x="383" y="1263" type="line"/>
      <point x="545" y="1263" type="line" smooth="yes"/>
    </contour>
  </outline>
</glyph>
<glyph name="N" format="1">
  <advance width="1473"/>
  <unicode hex="004E"/>
  <outline>
    <contour>
      <point x="196" y="1495" type="line"/>
      <point x="196" y="231" type="line"/>
      <point x="70" y="231" type="line"/>
      <point x="70" y="-0" type="line"/>
      <point x="329" y="-0" type="line" smooth="yes"/>
      <point x="368" y="-0"/>
      <point x="396" y="13"/>
      <point x="414" y="33" type="curve" smooth="yes"/>
      <point x="431" y="52"/>
      <point x="442" y="78"/>
      <point x="442" y="115" type="curve" smooth="yes"/>
      <point x="442" y="1024" type="line"/>
      <point x="986" y="67" type="line" smooth="yes"/>
      <point x="997" y="46"/>
      <point x="1014" y="29"/>
      <point x="1036" y="17" type="curve" smooth="yes"/>
      <point x="1056" y="6"/>
      <point x="1078" y="1"/>
      <point x="1104" y="1" type="curve" smooth="yes"/>
      <point x="1288" y="1" type="line"/>
      <point x="1291" y="1263" type="line"/>
      <point x="1417" y="1263" type="line"/>
      <point x="1417" y="1494" type="line"/>
      <point x="1157" y="1494" type="line" smooth="yes"/>
      <point x="1119" y="1494"/>
      <point x="1092" y="1482"/>
      <point x="1074" y="1464" type="curve" smooth="yes"/>
      <point x="1056" y="1446"/>
      <point x="1044" y="1419"/>
      <point x="1044" y="1381" type="curve" smooth="yes"/>
      <point x="1044" y="472" type="line"/>
      <point x="500" y="1429" type="line" smooth="yes"/>
      <point x="486" y="1453"/>
      <point x="468" y="1471"/>
      <point x="444" y="1481" type="curve" smooth="yes"/>
      <point x="426" y="1489"/>
      <point x="406" y="1493"/>
      <point x="385" y="1495" type="curve"/>
    </contour>
  </outline>
</glyph>
<glyph name="O" format="1">
  <advance width="1712"/>
  <unicode hex="004F"/>
  <outline>
    <contour>
      <point x="420" y="1526"/>
      <point x="80" y="1231"/>
      <point x="80" y="751" type="curve" smooth="yes"/>
      <point x="80" y="321"/>
      <point x="373" y="-19"/>
      <point x="852" y="-19" type="curve" smooth="yes"/>
      <point x="1285" y="-19"/>
      <point x="1625" y="273"/>
      <point x="1625" y="751" type="curve" smooth="yes"/>
      <point x="1625" y="1184"/>
      <point x="1330" y="1526"/>
      <point x="852" y="1526" type="curve" smooth="yes"/>
    </contour>
    <contour>
      <point x="1156" y="1303"/>
      <point x="1389" y="1094"/>
      <point x="1389" y="752" type="curve" smooth="yes"/>
      <point x="1389" y="444"/>
      <point x="1187" y="203"/>
      <point x="851" y="203" type="curve" smooth="yes"/>
      <point x="547" y="203"/>
      <point x="315" y="411"/>
      <point x="315" y="752" type="curve" smooth="yes"/>
      <point x="315" y="1066"/>
      <point x="517" y="1303"/>
      <point x="851" y="1303" type="curve" smooth="yes"/>
    </contour>
  </outline>
</glyph>
<glyph name="V" format="1">
  <advance width="1365"/>
  <unicode hex="0056"/>
  <outline>
    <contour>
      <point x="1119" y="1494" type="line" smooth="yes"/>
      <point x="1056" y="1494"/>
      <point x="1020" y="1468"/>
      <point x="1002" y="1407" type="curve" smooth="yes"/>
      <point x="668" y="361" type="line"/>
      <point x="667" y="361" type="line"/>
      <point x="334" y="1406" type="line" smooth="yes"/>
      <point x="315" y="1465"/>
      <point x="279" y="1494"/>
      <point x="215" y="1494" type="curve" smooth="yes"/>
      <point x="-20" y="1494" type="line"/>
      <point x="-20" y="1263" type="line"/>
      <point x="121" y="1263" type="line"/>
      <point x="527" y="-1" type="line"/>
      <point x="806" y="-1" type="line"/>
      <point x="1213" y="1263" type="line"/>
      <point x="1354" y="1263" type="line"/>
      <point x="1354" y="1494" type="line"/>
    </contour>
  </outline>
</glyph>
<glyph name="W" format="1">
  <advance width="1895"/>
  <unicode hex="0057"/>
  <outline>
    <contour>
      <point x="1649" y="1494" type="line" smooth="yes"/>
      <point x="1616" y="1494"/>
      <point x="1591" y="1486"/>
      <point x="1571" y="1471" type="curve" smooth="yes"/>
      <point x="1562" y="1464"/>
      <point x="1553" y="1455"/>
      <point x="1545" y="1445" type="curve"/>
      <point x="1538" y="1445" type="line"/>
      <point x="1323" y="424" type="line"/>
      <point x="1323" y="424" type="line"/>
      <point x="1089" y="1392" type="line" smooth="yes"/>
      <point x="1083" y="1422"/>
      <point x="1070" y="1444"/>
      <point x="1056" y="1460" type="curve" smooth="yes"/>
      <point x="1038" y="1480"/>
      <point x="1010" y="1494"/>
      <point x="970" y="1494" type="curve" smooth="yes"/>
      <point x="894" y="1494" type="line" smooth="yes"/>
      <point x="855" y="1494"/>
      <point x="827" y="1480"/>
      <point x="809" y="1460" type="curve" smooth="yes"/>
      <point x="795" y="1444"/>
      <point x="782" y="1422"/>
      <point x="775" y="1392" type="curve" smooth="yes"/>
      <point x="542" y="417" type="line"/>
      <point x="541" y="417" type="line"/>
      <point x="335" y="1401" type="line" smooth="yes"/>
      <point x="328" y="1434"/>
      <point x="313" y="1455"/>
      <point x="292" y="1471" type="curve" smooth="yes"/>
      <point x="272" y="1486"/>
      <point x="248" y="1494"/>
      <point x="216" y="1494" type="curve" smooth="yes"/>
      <point x="-19" y="1494" type="line"/>
      <point x="-19" y="1263" type="line"/>
      <point x="118" y="1263" type="line"/>
      <point x="396" y="-1" type="line"/>
      <point x="695" y="-1" type="line"/>
      <point x="932" y="1046" type="line"/>
      <point x="1170" y="-1" type="line"/>
      <point x="1468" y="-1" type="line"/>
      <point x="1746" y="1263" type="line"/>
      <point x="1884" y="1263" type="line"/>
      <point x="1884" y="1494" type="line"/>
    </contour>
  </outline>
</glyph>
<glyph name="X" format="1">
  <advance width="1271"/>
  <unicode hex="0058"/>
  <outline>
    <contour>
      <point x="1046" y="1494" type="line" smooth="yes"/>
      <point x="992" y="1494"/>
      <point x="954" y="1469"/>
      <point x="928" y="1426" type="curve" smooth="yes"/>
      <point x="643" y="967" type="line"/>
      <point x="344" y="1430" type="line" smooth="yes"/>
      <point x="316" y="1472"/>
      <point x="276" y="1494"/>
      <point x="226" y="1494" type="curve" smooth="yes"/>
      <point x="19" y="1494" type="line"/>
      <point x="19" y="1263" type="line"/>
      <point x="171" y="1263" type="line"/>
      <point x="475" y="774" type="line"/>
      <point x="1" y="-1" type="line"/>
      <point x="283" y="-1" type="line"/>
      <point x="640" y="581" type="line"/>
      <point x="993" y="-1" type="line"/>
      <point x="1274" y="-1" type="line"/>
      <point x="801" y="774" type="line"/>
      <point x="1099" y="1263" type="line"/>
      <point x="1252" y="1263" type="line"/>
      <point x="1252" y="1494" type="line"/>
    </contour>
  </outline>
</glyph>
<glyph name="bracketleft" format="1">
  <advance width="594"/>
  <unicode hex="005B"/>
  <outline>
    <contour>
      <point x="113" y="1598" type="line"/>
      <point x="113" y="-121" type="line"/>
      <point x="564" y="-121" type="line"/>
      <point x="564" y="94" type="line"/>
      <point x="335" y="94" type="line"/>
      <point x="335" y="1383" type="line"/>
      <point x="564" y="1383" type="line"/>
      <point x="564" y="1598" type="line"/>
    </contour>
  </outline>
</glyph>
<glyph name="bracketright" format="1">
  <advance width="593"/>
  <unicode hex="005D"/>
  <outline>
    <contour>
      <point x="27" y="1598" type="line"/>
      <point x="27" y="1383" type="line"/>
      <point x="257" y="1383" type="line"/>
      <point x="257" y="94" type="line"/>
      <point x="27" y="94" type="line"/>
      <point x="27" y="-121" type="line"/>
      <point x="479" y="-121" type="line"/>
      <point x="479" y="1598" type="line"/>
    </contour>
  </outline>
</glyph>
<glyph name="asciicircum" format="1">
  <advance width="1107"/>
  <unicode hex="005E"/>
  <outline>
    <contour>
      <point x="437" y="1478" type="line"/>
      <point x="109" y="810" type="line"/>
      <point x="342" y="810" type="line"/>
      <point x="559" y="1230" type="line"/>
      <point x="769" y="810" type="line"/>
      <point x="1002" y="810" type="line"/>
      <point x="669" y="1478" type="line"/>
    </contour>
  </outline>
</glyph>
<glyph name="underscore" format="1">
  <advance width="1087"/>
  <unicode hex="005F"/>
  <outline>
    <contour>
      <point x="78" y="214" type="line"/>
      <point x="78" y="-1" type="line"/>
      <point x="1007" y="-1" type="line"/>
      <point x="1007" y="214" type="line"/>
    </contour>
  </outline>
</glyph>
<glyph name="a" format="1">
  <advance width="1196"/>
  <unicode hex="0061"/>
  <outline>
    <contour>
      <point x="324" y="1104"/>
      <point x="150" y="1000"/>
      <point x="148" y="848" type="curve" smooth="yes"/>
      <point x="146" y="777" type="line"/>
      <point x="383" y="777" type="line"/>
      <point x="386" y="817" type="line" smooth="yes"/>
      <point x="392" y="875"/>
      <point x="479" y="882"/>
      <point x="569" y="882" type="curve" smooth="yes"/>
      <point x="656" y="882"/>
      <point x="705" y="873"/>
      <point x="730" y="848" type="curve" smooth="yes"/>
      <point x="757" y="820"/>
      <point x="763" y="774"/>
      <point x="765" y="707" type="curve"/>
      <point x="765" y="646"/>
      <point x="765" y="591"/>
      <point x="765" y="530" type="curve"/>
      <point x="756" y="329"/>
      <point x="667" y="211"/>
      <point x="490" y="211" type="curve" smooth="yes"/>
      <point x="336" y="211"/>
      <point x="304" y="269"/>
      <point x="304" y="326" type="curve" smooth="yes"/>
      <point x="304" y="473"/>
      <point x="487" y="484"/>
      <point x="695" y="484" type="curve" smooth="yes"/>
      <point x="778" y="484" type="line"/>
      <point x="778" y="667" type="line"/>
      <point x="694" y="667" type="line" smooth="yes"/>
      <point x="210" y="667"/>
      <point x="65" y="571"/>
      <point x="65" y="309" type="curve" smooth="yes"/>
      <point x="65" y="42"/>
      <point x="268" y="-18"/>
      <point x="441" y="-18" type="curve" smooth="yes"/>
      <point x="568" y="-18"/>
      <point x="771" y="63"/>
      <point x="812" y="187" type="curve"/>
      <point x="800" y="159" type="line"/>
      <point x="796" y="153"/>
      <point x="795" y="148"/>
      <point x="795" y="142" type="curve" smooth="yes"/>
      <point x="795" y="61"/>
      <point x="920" y="-3"/>
      <point x="995" y="-3" type="curve" smooth="yes"/>
      <point x="1168" y="-3" type="line"/>
      <point x="1168" y="222" type="line"/>
      <point x="1031" y="224" type="line" smooth="yes"/>
      <point x="1005" y="224"/>
      <point x="1003" y="244"/>
      <point x="1003" y="271" type="curve" smooth="yes"/>
      <point x="1003" y="725" type="line" smooth="yes"/>
      <point x="1003" y="864"/>
      <point x="964" y="963"/>
      <point x="896" y="1019" type="curve" smooth="yes"/>
      <point x="831" y="1073"/>
      <point x="722" y="1104"/>
      <point x="579" y="1104" type="curve" smooth="yes"/>
    </contour>
  </outline>
</glyph>
<glyph name="d" format="1">
  <advance width="1265"/>
  <unicode hex="0064"/>
  <outline>
    <contour>
      <point x="320" y="745"/>
      <point x="420" y="876"/>
      <point x="607" y="876" type="curve" smooth="yes"/>
      <point x="695" y="876"/>
      <point x="782" y="844"/>
      <point x="858" y="804" type="curve"/>
      <point x="858" y="403" type="line"/>
      <point x="836" y="295"/>
      <point x="724" y="216"/>
      <point x="583" y="216" type="curve" smooth="yes"/>
      <point x="434" y="216"/>
      <point x="312" y="346"/>
      <point x="316" y="546" type="curve" smooth="yes"/>
    </contour>
    <contour>
      <point x="740" y="1229" type="line"/>
      <point x="857" y="1229" type="line"/>
      <point x="857" y="1014" type="line"/>
      <point x="784" y="1067"/>
      <point x="710" y="1103"/>
      <point x="607" y="1103" type="curve" smooth="yes"/>
      <point x="273" y="1103"/>
      <point x="76" y="873"/>
      <point x="78" y="550" type="curve" smooth="yes"/>
      <point x="80" y="193"/>
      <point x="284" y="-19"/>
      <point x="540" y="-19" type="curve" smooth="yes"/>
      <point x="688" y="-19"/>
      <point x="850" y="43"/>
      <point x="893" y="172" type="curve"/>
      <point x="894" y="175" type="line"/>
      <point x="891" y="118"/>
      <point x="906" y="75"/>
      <point x="927" y="51" type="curve" smooth="yes"/>
      <point x="956" y="18"/>
      <point x="994" y="-3"/>
      <point x="1069" y="-3" type="curve" smooth="yes"/>
      <point x="1255" y="-3" type="line"/>
      <point x="1255" y="223" type="line"/>
      <point x="1117" y="223" type="line" smooth="yes"/>
      <point x="1105" y="223"/>
      <point x="1096" y="223"/>
      <point x="1089" y="226" type="curve" smooth="yes"/>
      <point x="1085" y="228"/>
      <point x="1095" y="240"/>
      <point x="1095" y="243" type="curve" smooth="yes"/>
      <point x="1095" y="1341" type="line" smooth="yes"/>
      <point x="1095" y="1380"/>
      <point x="1084" y="1405"/>
      <point x="1069" y="1422" type="curve" smooth="yes"/>
      <point x="1053" y="1440"/>
      <point x="1026" y="1455"/>
      <point x="983" y="1455" type="curve" smooth="yes"/>
      <point x="739" y="1455" type="line"/>
    </contour>
  </outline>
</glyph>
<glyph name="g" format="1">
  <advance width="1269"/>
  <unicode hex="0067"/>
  <outline>
    <contour>
      <point x="689" y="881"/>
      <point x="763" y="848"/>
      <point x="846" y="765" type="curve" smooth="yes"/>
      <point x="859" y="752"/>
      <point x="864" y="733"/>
      <point x="864" y="711" type="curve"/>
      <point x="863" y="460" type="line"/>
      <point x="861" y="281"/>
      <point x="753" y="203"/>
      <point x="580" y="203" type="curve" smooth="yes"/>
      <point x="425" y="203"/>
      <point x="305" y="352"/>
      <point x="305" y="552" type="curve" smooth="yes"/>
      <point x="305" y="719"/>
      <point x="418" y="881"/>
      <point x="589" y="881" type="curve" smooth="yes"/>
    </contour>
    <contour>
      <point x="279" y="1112"/>
      <point x="67" y="863"/>
      <point x="67" y="554" type="curve" smooth="yes"/>
      <point x="67" y="215"/>
      <point x="291" y="-19"/>
      <point x="552" y="-19" type="curve" smooth="yes"/>
      <point x="701" y="-19"/>
      <point x="818" y="23"/>
      <point x="877" y="133" type="curve"/>
      <point x="861" y="145" type="line"/>
      <point x="864" y="120" type="line"/>
      <point x="877" y="-105"/>
      <point x="766" y="-208"/>
      <point x="602" y="-208" type="curve" smooth="yes"/>
      <point x="534" y="-208"/>
      <point x="461" y="-189"/>
      <point x="381" y="-162" type="curve" smooth="yes"/>
      <point x="328" y="-144"/>
      <point x="329" y="-146"/>
      <point x="234" y="-95" type="curve"/>
      <point x="140" y="-319" type="line"/>
      <point x="229" y="-356"/>
      <point x="260" y="-366"/>
      <point x="307" y="-383" type="curve" smooth="yes"/>
      <point x="414" y="-421"/>
      <point x="515" y="-435"/>
      <point x="597" y="-435" type="curve" smooth="yes"/>
      <point x="854" y="-435"/>
      <point x="1100" y="-286"/>
      <point x="1100" y="63" type="curve" smooth="yes"/>
      <point x="1100" y="861" type="line"/>
      <point x="1206" y="861" type="line"/>
      <point x="1206" y="1086" type="line"/>
      <point x="879" y="1086" type="line"/>
      <point x="879" y="920" type="line"/>
      <point x="911" y="933" type="line"/>
      <point x="833" y="1063"/>
      <point x="694" y="1102"/>
      <point x="575" y="1105" type="curve" smooth="yes"/>
    </contour>
  </outline>
</glyph>
<glyph name="h" format="1">
  <advance width="1282"/>
  <unicode hex="0068"/>
  <outline>
    <contour>
      <point x="419" y="1343" type="line" smooth="yes"/>
      <point x="419" y="1386"/>
      <point x="400" y="1415"/>
      <point x="363" y="1435" type="curve" smooth="yes"/>
      <point x="337" y="1449"/>
      <point x="310" y="1456"/>
      <point x="282" y="1456" type="curve" smooth="yes"/>
      <point x="63" y="1456" type="line"/>
      <point x="63" y="1230" type="line"/>
      <point x="182" y="1230" type="line"/>
      <point x="182" y="0" type="line"/>
      <point x="419" y="0" type="line"/>
    </contour>
    <contour>
      <point x="581" y="1104"/>
      <point x="479" y="1060"/>
      <point x="412" y="991" type="curve"/>
      <point x="409" y="748" type="line"/>
      <point x="467" y="819"/>
      <point x="546" y="877"/>
      <point x="650" y="877" type="curve" smooth="yes"/>
      <point x="746" y="877"/>
      <point x="855" y="826"/>
      <point x="856" y="679" type="curve" smooth="yes"/>
      <point x="856" y="221" type="line"/>
      <point x="859" y="139"/>
      <point x="878" y="85"/>
      <point x="904" y="56" type="curve" smooth="yes"/>
      <point x="954" y="0"/>
      <point x="1024" y="-1"/>
      <point x="1104" y="-1" type="curve" smooth="yes"/>
      <point x="1254" y="-1" type="line"/>
      <point x="1254" y="225" type="line"/>
      <point x="1115" y="225" type="line" smooth="yes"/>
      <point x="1102" y="225"/>
      <point x="1097" y="226"/>
      <point x="1095" y="228" type="curve" smooth="yes"/>
      <point x="1093" y="230"/>
      <point x="1093" y="232"/>
      <point x="1093" y="232" type="curve"/>
      <point x="1093" y="699" type="line" smooth="yes"/>
      <point x="1093" y="977"/>
      <point x="879" y="1104"/>
      <point x="717" y="1104" type="curve" smooth="yes"/>
    </contour>
  </outline>
</glyph>
<glyph name="i" format="1">
  <advance width="667"/>
  <unicode hex="0069"/>
  <outline>
    <contour>
      <point x="246" y="1442"/>
      <point x="174" y="1376"/>
      <point x="174" y="1295" type="curve" smooth="yes"/>
      <point x="174" y="1220"/>
      <point x="244" y="1152"/>
      <point x="319" y="1152" type="curve" smooth="yes"/>
      <point x="400" y="1152"/>
      <point x="464" y="1219"/>
      <point x="464" y="1295" type="curve" smooth="yes"/>
      <point x="464" y="1376"/>
      <point x="398" y="1442"/>
      <point x="319" y="1442" type="curve" smooth="yes"/>
    </contour>
    <contour>
      <point x="92" y="860" type="line"/>
      <point x="211" y="860" type="line"/>
      <point x="211" y="241" type="line" smooth="yes"/>
      <point x="211" y="74"/>
      <point x="271" y="-1"/>
      <point x="414" y="-1" type="curve" smooth="yes"/>
      <point x="588" y="-1" type="line"/>
      <point x="588" y="225" type="line"/>
      <point x="468" y="225" type="line" smooth="yes"/>
      <point x="450" y="225"/>
      <point x="448" y="234"/>
      <point x="448" y="251" type="curve" smooth="yes"/>
      <point x="448" y="970" type="line" smooth="yes"/>
      <point x="448" y="1007"/>
      <point x="434" y="1035"/>
      <point x="415" y="1054" type="curve" smooth="yes"/>
      <point x="396" y="1073"/>
      <point x="369" y="1086"/>
      <point x="332" y="1086" type="curve" smooth="yes"/>
      <point x="92" y="1086" type="line" smooth="yes"/>
    </contour>
  </outline>
</glyph>
<glyph name="j" format="1">
  <advance width="629"/>
  <unicode hex="006A"/>
  <outline>
    <contour>
      <point x="72" y="1086" type="line"/>
      <point x="72" y="860" type="line"/>
      <point x="231" y="860" type="line"/>
      <point x="231" y="-35" type="line" smooth="yes"/>
      <point x="231" y="-127"/>
      <point x="207" y="-203"/>
      <point x="113" y="-203" type="curve" smooth="yes"/>
      <point x="64" y="-203"/>
      <point x="29" y="-197"/>
      <point x="-76" y="-168" type="curve"/>
      <point x="-131" y="-386" type="line"/>
      <point x="-12" y="-418"/>
      <point x="46" y="-430"/>
      <point x="129" y="-430" type="curve" smooth="yes"/>
      <point x="307" y="-430"/>
      <point x="468" y="-304"/>
      <point x="468" y="-67" type="curve" smooth="yes"/>
      <point x="468" y="969" type="line" smooth="yes"/>
      <point x="468" y="1006"/>
      <point x="457" y="1032"/>
      <point x="440" y="1051" type="curve" smooth="yes"/>
      <point x="422" y="1071"/>
      <point x="394" y="1086"/>
      <point x="354" y="1086" type="curve" smooth="yes"/>
    </contour>
    <contour>
      <point x="271" y="1437"/>
      <point x="195" y="1372"/>
      <point x="195" y="1290" type="curve" smooth="yes"/>
      <point x="195" y="1216"/>
      <point x="266" y="1147"/>
      <point x="341" y="1147" type="curve" smooth="yes"/>
      <point x="420" y="1147"/>
      <point x="485" y="1213"/>
      <point x="485" y="1290" type="curve" smooth="yes"/>
      <point x="485" y="1372"/>
      <point x="422" y="1437"/>
      <point x="341" y="1437" type="curve" smooth="yes"/>
    </contour>
  </outline>
</glyph>
<glyph name="k" format="1">
  <advance width="1130"/>
  <unicode hex="006B"/>
  <outline>
    <contour>
      <point x="54" y="1229" type="line"/>
      <point x="173" y="1229" type="line"/>
      <point x="173" y="-1" type="line"/>
      <point x="410" y="-1" type="line"/>
      <point x="410" y="439" type="line"/>
      <point x="586" y="439" type="line"/>
      <point x="413" y="539" type="line"/>
      <point x="668" y="107" type="line" smooth="yes"/>
      <point x="689" y="72"/>
      <point x="711" y="50"/>
      <point x="731" y="33" type="curve" smooth="yes"/>
      <point x="756" y="13"/>
      <point x="792" y="-1"/>
      <point x="841" y="-1" type="curve" smooth="yes"/>
      <point x="1031" y="-1" type="line"/>
      <point x="1031" y="225" type="line"/>
      <point x="896" y="225" type="line"/>
      <point x="890" y="226"/>
      <point x="882" y="228"/>
      <point x="873" y="231" type="curve" smooth="yes"/>
      <point x="868" y="233"/>
      <point x="861" y="238"/>
      <point x="857" y="244" type="curve" smooth="yes"/>
      <point x="594" y="689" type="line"/>
      <point x="576" y="501" type="line"/>
      <point x="1062" y="1086" type="line"/>
      <point x="774" y="1086" type="line"/>
      <point x="446" y="671" type="line"/>
      <point x="410" y="671" type="line"/>
      <point x="410" y="1340" type="line" smooth="yes"/>
      <point x="410" y="1378"/>
      <point x="397" y="1404"/>
      <point x="378" y="1423" type="curve" smooth="yes"/>
      <point x="359" y="1442"/>
      <point x="333" y="1455"/>
      <point x="295" y="1455" type="curve" smooth="yes"/>
      <point x="54" y="1455" type="line"/>
    </contour>
  </outline>
</glyph>
<glyph name="m" format="1">
  <advance width="1820"/>
  <unicode hex="006D"/>
  <outline>
    <contour>
      <point x="55" y="860" type="line"/>
      <point x="174" y="860" type="line"/>
      <point x="174" y="-1" type="line"/>
      <point x="411" y="-1" type="line"/>
      <point x="411" y="761" type="line"/>
      <point x="459" y="826"/>
      <point x="522" y="877"/>
      <point x="607" y="877" type="curve" smooth="yes"/>
      <point x="692" y="877"/>
      <point x="780" y="821"/>
      <point x="780" y="679" type="curve" smooth="yes"/>
      <point x="780" y="-1" type="line"/>
      <point x="1017" y="-1" type="line"/>
      <point x="1017" y="694" type="line" smooth="yes"/>
      <point x="1018" y="794"/>
      <point x="1098" y="877"/>
      <point x="1209" y="877" type="curve" smooth="yes"/>
      <point x="1294" y="877"/>
      <point x="1383" y="821"/>
      <point x="1383" y="679" type="curve" smooth="yes"/>
      <point x="1383" y="245" type="line" smooth="yes"/>
      <point x="1383" y="148"/>
      <point x="1402" y="88"/>
      <point x="1430" y="56" type="curve" smooth="yes"/>
      <point x="1460" y="22"/>
      <point x="1511" y="-1"/>
      <point x="1587" y="-1" type="curve" smooth="yes"/>
      <point x="1779" y="-1" type="line"/>
      <point x="1779" y="225" type="line"/>
      <point x="1641" y="225" type="line" smooth="yes"/>
      <point x="1630" y="225"/>
      <point x="1619" y="224"/>
      <point x="1613" y="228" type="curve" smooth="yes"/>
      <point x="1609" y="231"/>
      <point x="1619" y="243"/>
      <point x="1619" y="246" type="curve" smooth="yes"/>
      <point x="1619" y="699" type="line" smooth="yes"/>
      <point x="1619" y="980"/>
      <point x="1419" y="1104"/>
      <point x="1270" y="1104" type="curve" smooth="yes"/>
      <point x="1105" y="1104"/>
      <point x="1001" y="1031"/>
      <point x="926" y="926" type="curve"/>
      <point x="979" y="911" type="line"/>
      <point x="884" y="1042"/>
      <point x="787" y="1104"/>
      <point x="658" y="1104" type="curve" smooth="yes"/>
      <point x="529" y="1104"/>
      <point x="419" y="1033"/>
      <point x="353" y="932" type="curve"/>
      <point x="394" y="953" type="line"/>
      <point x="394" y="976" type="line"/>
      <point x="393" y="1048"/>
      <point x="353" y="1086"/>
      <point x="274" y="1086" type="curve" smooth="yes"/>
      <point x="55" y="1086" type="line"/>
    </contour>
  </outline>
</glyph>
<glyph name="o" format="1">
  <advance width="1253"/>
  <unicode hex="006F"/>
  <outline>
    <contour>
      <point x="308" y="1104"/>
      <point x="58" y="893"/>
      <point x="58" y="542" type="curve" smooth="yes"/>
      <point x="58" y="226"/>
      <point x="274" y="-18"/>
      <point x="626" y="-18" type="curve" smooth="yes"/>
      <point x="945" y="-18"/>
      <point x="1195" y="191"/>
      <point x="1195" y="542" type="curve" smooth="yes"/>
      <point x="1195" y="859"/>
      <point x="979" y="1104"/>
      <point x="626" y="1104" type="curve" smooth="yes"/>
    </contour>
    <contour>
      <point x="440" y="209"/>
      <point x="297" y="332"/>
      <point x="297" y="542" type="curve" smooth="yes"/>
      <point x="297" y="736"/>
      <point x="421" y="877"/>
      <point x="626" y="877" type="curve" smooth="yes"/>
      <point x="813" y="877"/>
      <point x="956" y="751"/>
      <point x="956" y="542" type="curve" smooth="yes"/>
      <point x="956" y="352"/>
      <point x="832" y="209"/>
      <point x="626" y="209" type="curve" smooth="yes"/>
    </contour>
  </outline>
</glyph>
<glyph name="s" format="1">
  <advance width="980"/>
  <unicode hex="0073"/>
  <outline>
    <contour>
      <point x="235" y="1104"/>
      <point x="90" y="970"/>
      <point x="90" y="794" type="curve"/>
      <point x="90" y="591"/>
      <point x="228" y="527"/>
      <point x="421" y="452" type="curve" smooth="yes"/>
      <point x="496" y="423"/>
      <point x="652" y="406"/>
      <point x="652" y="306" type="curve" smooth="yes"/>
      <point x="652" y="233"/>
      <point x="577" y="208"/>
      <point x="498" y="208" type="curve" smooth="yes"/>
      <point x="364" y="208"/>
      <point x="307" y="249"/>
      <point x="284" y="368" type="curve"/>
      <point x="62" y="308" type="line"/>
      <point x="109" y="81"/>
      <point x="248" y="-19"/>
      <point x="493" y="-19" type="curve" smooth="yes"/>
      <point x="711" y="-19"/>
      <point x="890" y="96"/>
      <point x="890" y="306" type="curve" smooth="yes"/>
      <point x="890" y="537"/>
      <point x="662" y="620"/>
      <point x="522" y="668" type="curve" smooth="yes"/>
      <point x="456" y="691"/>
      <point x="329" y="717"/>
      <point x="329" y="800" type="curve" smooth="yes"/>
      <point x="329" y="865"/>
      <point x="412" y="877"/>
      <point x="496" y="877" type="curve" smooth="yes"/>
      <point x="544" y="877"/>
      <point x="578" y="868"/>
      <point x="597" y="858" type="curve" smooth="yes"/>
      <point x="618" y="847"/>
      <point x="631" y="828"/>
      <point x="631" y="804" type="curve" smooth="yes"/>
      <point x="631" y="788" type="line"/>
      <point x="861" y="788" type="line"/>
      <point x="861" y="829" type="line" smooth="yes"/>
      <point x="860" y="963"/>
      <point x="792" y="1044"/>
      <point x="689" y="1076" type="curve" smooth="yes"/>
      <point x="644" y="1090"/>
      <point x="580" y="1104"/>
      <point x="485" y="1104" type="curve" smooth="yes"/>
    </contour>
  </outline>
</glyph>
<glyph name="t" format="1">
  <advance width="681"/>
  <unicode hex="0074"/>
  <outline>
    <contour>
      <point x="160" y="1087" type="line"/>
      <point x="0" y="1087" type="line"/>
      <point x="0" y="861" type="line"/>
      <point x="160" y="861" type="line"/>
      <point x="160" y="246" type="line" smooth="yes"/>
      <point x="160" y="149"/>
      <point x="179" y="88"/>
      <point x="207" y="56" type="curve" smooth="yes"/>
      <point x="231" y="29"/>
      <point x="269" y="-1"/>
      <point x="356" y="-1" type="curve" smooth="yes"/>
      <point x="559" y="-1" type="line"/>
      <point x="559" y="225" type="line"/>
      <point x="422" y="225" type="line" smooth="yes"/>
      <point x="413" y="225"/>
      <point x="408" y="228"/>
      <point x="405" y="231" type="curve" smooth="yes"/>
      <point x="403" y="233"/>
      <point x="400" y="238"/>
      <point x="400" y="246" type="curve"/>
      <point x="400" y="861" type="line"/>
      <point x="600" y="861" type="line"/>
      <point x="600" y="1087" type="line"/>
      <point x="400" y="1087" type="line"/>
      <point x="400" y="1297" type="line"/>
      <point x="160" y="1297" type="line"/>
    </contour>
  </outline>
</glyph>
<glyph name="v" format="1">
  <advance width="1100"/>
  <unicode hex="0076"/>
  <outline>
    <contour>
      <point x="909" y="1086" type="line" smooth="yes"/>
      <point x="851" y="1086"/>
      <point x="807" y="1063"/>
      <point x="786" y="999" type="curve" smooth="yes"/>
      <point x="526" y="265" type="line"/>
      <point x="606" y="266" type="line"/>
      <point x="313" y="1002" type="line"/>
      <point x="297" y="1055"/>
      <point x="252" y="1086"/>
      <point x="193" y="1086" type="curve" smooth="yes"/>
      <point x="0" y="1086" type="line"/>
      <point x="0" y="860" type="line"/>
      <point x="111" y="860" type="line"/>
      <point x="465" y="-1" type="line"/>
      <point x="677" y="-1" type="line"/>
      <point x="991" y="860" type="line"/>
      <point x="1102" y="860" type="line"/>
      <point x="1102" y="1086" type="line"/>
    </contour>
  </outline>
</glyph>
<glyph name="w" format="1">
  <advance width="1519"/>
  <unicode hex="0077"/>
  <outline>
    <contour>
      <point x="1349" y="1086" type="line" smooth="yes"/>
      <point x="1316" y="1086"/>
      <point x="1289" y="1076"/>
      <point x="1269" y="1062" type="curve" smooth="yes"/>
      <point x="1249" y="1048"/>
      <point x="1235" y="1026"/>
      <point x="1226" y="997" type="curve" smooth="yes"/>
      <point x="1061" y="425" type="line"/>
      <point x="884" y="1086" type="line"/>
      <point x="636" y="1086" type="line"/>
      <point x="459" y="425" type="line"/>
      <point x="294" y="1000" type="line" smooth="yes"/>
      <point x="285" y="1030"/>
      <point x="267" y="1049"/>
      <point x="246" y="1063" type="curve" smooth="yes"/>
      <point x="225" y="1077"/>
      <point x="201" y="1086"/>
      <point x="170" y="1086" type="curve" smooth="yes"/>
      <point x="-24" y="1086" type="line"/>
      <point x="-24" y="860" type="line"/>
      <point x="83" y="860" type="line"/>
      <point x="342" y="-1" type="line"/>
      <point x="594" y="-1" type="line"/>
      <point x="759" y="656" type="line"/>
      <point x="924" y="-1" type="line"/>
      <point x="1173" y="-1" type="line"/>
      <point x="1430" y="860" type="line"/>
      <point x="1539" y="860" type="line"/>
      <point x="1539" y="1086" type="line"/>
    </contour>
  </outline>
</glyph>
<glyph name="y" format="1">
  <advance width="1159"/>
  <unicode hex="0079"/>
  <outline>
    <contour>
      <point x="942" y="1086" type="line"/>
      <point x="879" y="1086"/>
      <point x="840" y="1058"/>
      <point x="820" y="1000" type="curve" smooth="yes"/>
      <point x="589" y="355" type="line"/>
      <point x="330" y="1002" type="line" smooth="yes"/>
      <point x="308" y="1059"/>
      <point x="270" y="1086"/>
      <point x="208" y="1086" type="curve" smooth="yes"/>
      <point x="0" y="1086" type="line"/>
      <point x="0" y="860" type="line"/>
      <point x="119" y="860" type="line"/>
      <point x="468" y="53" type="line"/>
      <point x="414" y="-122" type="line" smooth="yes"/>
      <point x="405" y="-151"/>
      <point x="382" y="-193"/>
      <point x="359" y="-198" type="curve" smooth="yes"/>
      <point x="305" y="-209"/>
      <point x="221" y="-184"/>
      <point x="92" y="-107" type="curve"/>
      <point x="10" y="-321" type="line"/>
      <point x="122" y="-389"/>
      <point x="235" y="-429"/>
      <point x="318" y="-429" type="curve" smooth="yes"/>
      <point x="438" y="-429"/>
      <point x="553" y="-391"/>
      <point x="601" y="-264" type="curve" smooth="yes"/>
      <point x="626" y="-197"/>
      <point x="650" y="-132"/>
      <point x="675" y="-70" type="curve"/>
      <point x="1028" y="862" type="line"/>
      <point x="1139" y="862" type="line"/>
      <point x="1139" y="1089" type="line"/>
    </contour>
  </outline>
</glyph>
<glyph name="braceleft" format="1">
  <advance width="627"/>
  <unicode hex="007B"/>
  <outline>
    <contour>
      <point x="415" y="1598"/>
      <point x="324" y="1565"/>
      <point x="259" y="1491" type="curve" smooth="yes"/>
      <point x="199" y="1422"/>
      <point x="167" y="1319"/>
      <point x="167" y="1175" type="curve"/>
      <point x="169" y="1124"/>
      <point x="181" y="910"/>
      <point x="184" y="882" type="curve"/>
      <point x="183" y="869"/>
      <point x="178" y="857"/>
      <point x="166" y="852" type="curve" smooth="yes"/>
      <point x="137" y="836"/>
      <point x="127" y="833"/>
      <point x="44" y="833" type="curve"/>
      <point x="44" y="640" type="line"/>
      <point x="127" y="640"/>
      <point x="137" y="637"/>
      <point x="166" y="621" type="curve" smooth="yes"/>
      <point x="179" y="615"/>
      <point x="184" y="603"/>
      <point x="184" y="588" type="curve"/>
      <point x="169" y="302" type="line"/>
      <point x="169" y="156"/>
      <point x="201" y="53"/>
      <point x="261" y="-16" type="curve" smooth="yes"/>
      <point x="321" y="-84"/>
      <point x="415" y="-123"/>
      <point x="619" y="-123" type="curve"/>
      <point x="619" y="92" type="line"/>
      <point x="496" y="90"/>
      <point x="454" y="102"/>
      <point x="423" y="136" type="curve" smooth="yes"/>
      <point x="392" y="171"/>
      <point x="379" y="231"/>
      <point x="378" y="313" type="curve"/>
      <point x="398" y="601" type="line"/>
      <point x="398" y="669"/>
      <point x="394" y="724"/>
      <point x="348" y="737" type="curve"/>
      <point x="348" y="739" type="line"/>
      <point x="393" y="754"/>
      <point x="398" y="804"/>
      <point x="398" y="874" type="curve"/>
      <point x="378" y="1164" type="line"/>
      <point x="378" y="1244"/>
      <point x="391" y="1305"/>
      <point x="423" y="1341" type="curve" smooth="yes"/>
      <point x="450" y="1371"/>
      <point x="482" y="1384"/>
      <point x="619" y="1384" type="curve"/>
      <point x="619" y="1598" type="line"/>
    </contour>
  </outline>
</glyph>
<glyph name="asciitilde" format="1">
  <advance width="1107"/>
  <unicode hex="007E"/>
  <outline>
    <contour>
      <point x="760" y="875" type="line"/>
      <point x="760" y="785"/>
      <point x="766" y="721"/>
      <point x="715" y="721" type="curve" smooth="yes"/>
      <point x="656" y="721"/>
      <point x="524" y="866"/>
      <point x="387" y="866" type="curve" smooth="yes"/>
      <point x="210" y="866"/>
      <point x="131" y="748"/>
      <point x="131" y="507" type="curve"/>
      <point x="340" y="507" type="line"/>
      <point x="340" y="603"/>
      <point x="339" y="658"/>
      <point x="397" y="658" type="curve" smooth="yes"/>
      <point x="500" y="658"/>
      <point x="564" y="518"/>
      <point x="716" y="518" type="curve" smooth="yes"/>
      <point x="892" y="518"/>
      <point x="977" y="635"/>
      <point x="977" y="875" type="curve"/>
    </contour>
  </outline>
</glyph>
<glyph name="yen" format="1">
  <advance width="1209"/>
  <unicode hex="00A5"/>
  <outline>
    <contour>
      <point x="488" y="-47" type="line"/>
      <point x="734" y="-47" type="line"/>
      <point x="734" y="425" type="line"/>
      <point x="1107" y="425" type="line"/>
      <point x="1107" y="607" type="line"/>
      <point x="789" y="607" type="line"/>
      <point x="833" y="704" type="line"/>
      <point x="1107" y="704" type="line"/>
      <point x="1107" y="885" type="line"/>
      <point x="912" y="885" type="line"/>
      <point x="1154" y="1432" type="line"/>
      <point x="880" y="1432" type="line"/>
      <point x="611" y="782" type="line"/>
      <point x="342" y="1432" type="line"/>
      <point x="69" y="1432" type="line"/>
      <point x="309" y="885" type="line"/>
      <point x="119" y="885" type="line"/>
      <point x="119" y="704" type="line"/>
      <point x="390" y="704" type="line"/>
      <point x="433" y="607" type="line"/>
      <point x="117" y="607" type="line"/>
      <point x="117" y="425" type="line"/>
      <point x="488" y="425" type="line"/>
    </contour>
  </outline>
</glyph>
<glyph name="section" format="1">
  <advance width="1029"/>
  <unicode hex="00A7"/>
  <outline>
    <contour>
      <point x="235" y="1486"/>
      <point x="79" y="1314"/>
      <point x="79" y="1106" type="curve"/>
      <point x="79" y="947"/>
      <point x="147" y="862"/>
      <point x="259" y="788" type="curve"/>
      <point x="161" y="727"/>
      <point x="101" y="632"/>
      <point x="101" y="489" type="curve"/>
      <point x="101" y="292"/>
      <point x="225" y="178"/>
      <point x="434" y="92" type="curve" smooth="yes"/>
      <point x="570" y="36"/>
      <point x="708" y="-9"/>
      <point x="708" y="-142" type="curve" smooth="yes"/>
      <point x="708" y="-240"/>
      <point x="633" y="-302"/>
      <point x="507" y="-302" type="curve" smooth="yes"/>
      <point x="382" y="-302"/>
      <point x="319" y="-231"/>
      <point x="269" y="-29" type="curve"/>
      <point x="49" y="-83" type="line"/>
      <point x="105" y="-382"/>
      <point x="254" y="-510"/>
      <point x="515" y="-510" type="curve" smooth="yes"/>
      <point x="796" y="-510"/>
      <point x="952" y="-340"/>
      <point x="952" y="-131" type="curve" smooth="yes"/>
      <point x="952" y="27"/>
      <point x="881" y="110"/>
      <point x="769" y="184" type="curve"/>
      <point x="866" y="246"/>
      <point x="931" y="311"/>
      <point x="931" y="482" type="curve" smooth="yes"/>
      <point x="931" y="678"/>
      <point x="808" y="799"/>
      <point x="598" y="883" type="curve" smooth="yes"/>
      <point x="460" y="941"/>
      <point x="326" y="988"/>
      <point x="326" y="1119" type="curve" smooth="yes"/>
      <point x="326" y="1216"/>
      <point x="401" y="1274"/>
      <point x="526" y="1274" type="curve" smooth="yes"/>
      <point x="651" y="1274"/>
      <point x="714" y="1206"/>
      <point x="759" y="1007" type="curve"/>
      <point x="982" y="1061" type="line"/>
      <point x="920" y="1350"/>
      <point x="779" y="1486"/>
      <point x="514" y="1486" type="curve" smooth="yes"/>
    </contour>
    <contour>
      <point x="519" y="653"/>
      <point x="540" y="651"/>
      <point x="544" y="650" type="curve"/>
      <point x="635" y="606"/>
      <point x="687" y="558"/>
      <point x="687" y="469" type="curve" smooth="yes"/>
      <point x="687" y="376"/>
      <point x="617" y="323"/>
      <point x="525" y="323" type="curve" smooth="yes"/>
      <point x="516" y="323"/>
      <point x="492" y="325"/>
      <point x="489" y="326" type="curve"/>
      <point x="397" y="371"/>
      <point x="349" y="417"/>
      <point x="349" y="504" type="curve" smooth="yes"/>
      <point x="349" y="590"/>
      <point x="411" y="653"/>
      <point x="512" y="653" type="curve" smooth="yes"/>
    </contour>
  </outline>
</glyph>
<glyph name="dieresis" format="1">
  <advance width="913"/>
  <unicode hex="00A8"/>
  <outline>
    <contour>
      <point x="185" y="1475"/>
      <point x="121" y="1409"/>
      <point x="121" y="1332" type="curve"/>
      <point x="121" y="1256"/>
      <point x="185" y="1192"/>
      <point x="261" y="1192" type="curve"/>
      <point x="338" y="1192"/>
      <point x="401" y="1256"/>
      <point x="403" y="1333" type="curve"/>
      <point x="403" y="1410"/>
      <point x="338" y="1475"/>
      <point x="261" y="1475" type="curve"/>
    </contour>
    <contour>
      <point x="574" y="1475"/>
      <point x="510" y="1409"/>
      <point x="510" y="1332" type="curve"/>
      <point x="510" y="1256"/>
      <point x="574" y="1192"/>
      <point x="650" y="1192" type="curve"/>
      <point x="727" y="1192"/>
      <point x="789" y="1256"/>
      <point x="792" y="1333" type="curve"/>
      <point x="792" y="1410"/>
      <point x="727" y="1475"/>
      <point x="650" y="1475" type="curve"/>
    </contour>
    <contour>
      <point x="443" y="1084" type="move" name="_top"/>
    </contour>
  </outline>
</glyph>
<glyph name="copyright" format="1">
  <advance width="1366"/>
  <unicode hex="00A9"/>
  <outline>
    <contour>
      <point x="296" y="1508"/>
      <point x="99" y="1286"/>
      <point x="76" y="908" type="curve" smooth="yes"/>
      <point x="76" y="564"/>
      <point x="319" y="293"/>
      <point x="682" y="293" type="curve" smooth="yes"/>
      <point x="1037" y="293"/>
      <point x="1290" y="561"/>
      <point x="1290" y="908" type="curve" smooth="yes"/>
      <point x="1290" y="1252"/>
      <point x="1071" y="1508"/>
      <point x="683" y="1508" type="curve" smooth="yes"/>
    </contour>
    <contour>
      <point x="493" y="1267"/>
      <point x="345" y="1117"/>
      <point x="346" y="901" type="curve"/>
      <point x="350" y="701"/>
      <point x="497" y="543"/>
      <point x="697" y="543" type="curve" smooth="yes"/>
      <point x="871" y="543"/>
      <point x="950" y="639"/>
      <point x="1001" y="697" type="curve"/>
      <point x="875" y="796" type="line"/>
      <point x="843" y="756"/>
      <point x="814" y="700"/>
      <point x="699" y="700" type="curve" smooth="yes"/>
      <point x="587" y="700"/>
      <point x="509" y="794"/>
      <point x="509" y="909" type="curve" smooth="yes"/>
      <point x="509" y="1027"/>
      <point x="588" y="1108"/>
      <point x="696" y="1108" type="curve" smooth="yes"/>
      <point x="755" y="1108"/>
      <point x="805" y="1115"/>
      <point x="839" y="1020" type="curve"/>
      <point x="984" y="1057" type="line"/>
      <point x="946" y="1220"/>
      <point x="807" y="1267"/>
      <point x="693" y="1267" type="curve" smooth="yes"/>
    </contour>
    <contour>
      <point x="958" y="1350"/>
      <point x="1126" y="1167"/>
      <point x="1126" y="905" type="curve" smooth="yes"/>
      <point x="1126" y="645"/>
      <point x="945" y="447"/>
      <point x="685" y="447" type="curve" smooth="yes"/>
      <point x="428" y="447"/>
      <point x="244" y="645"/>
      <point x="244" y="905" type="curve" smooth="yes"/>
      <point x="244" y="907" type="line" smooth="yes"/>
      <point x="244" y="1168"/>
      <point x="408" y="1350"/>
      <point x="685" y="1350" type="curve" smooth="yes"/>
    </contour>
  </outline>
</glyph>
<glyph name="ordfeminine" format="1">
  <advance width="866"/>
  <unicode hex="00AA"/>
  <outline>
    <contour>
      <point x="304" y="1454"/>
      <point x="231" y="1437"/>
      <point x="88" y="1366" type="curve"/>
      <point x="167" y="1185" type="line"/>
      <point x="282" y="1253"/>
      <point x="325" y="1266"/>
      <point x="384" y="1266" type="curve" smooth="yes"/>
      <point x="450" y="1266"/>
      <point x="479" y="1235"/>
      <point x="479" y="1146" type="curve"/>
      <point x="343" y="1143"/>
      <point x="244" y="1119"/>
      <point x="180" y="1081" type="curve" smooth="yes"/>
      <point x="99" y="1032"/>
      <point x="57" y="957"/>
      <point x="57" y="857" type="curve" smooth="yes"/>
      <point x="57" y="704"/>
      <point x="149" y="618"/>
      <point x="286" y="618" type="curve" smooth="yes"/>
      <point x="339" y="620"/>
      <point x="397" y="628"/>
      <point x="453" y="661" type="curve" smooth="yes"/>
      <point x="471" y="672"/>
      <point x="487" y="685"/>
      <point x="503" y="699" type="curve"/>
      <point x="512" y="683"/>
      <point x="522" y="670"/>
      <point x="534" y="660" type="curve" smooth="yes"/>
      <point x="566" y="633"/>
      <point x="606" y="619"/>
      <point x="656" y="619" type="curve" smooth="yes"/>
      <point x="680" y="619"/>
      <point x="702" y="620"/>
      <point x="738" y="629" type="curve" smooth="yes"/>
      <point x="759" y="633"/>
      <point x="785" y="640"/>
      <point x="817" y="649" type="curve"/>
      <point x="786" y="839" type="line"/>
      <point x="765" y="833"/>
      <point x="750" y="825"/>
      <point x="737" y="821" type="curve" smooth="yes"/>
      <point x="720" y="816"/>
      <point x="709" y="819"/>
      <point x="703" y="826" type="curve" smooth="yes"/>
      <point x="697" y="833"/>
      <point x="696" y="846"/>
      <point x="696" y="860" type="curve" smooth="yes"/>
      <point x="696" y="1153" type="line" smooth="yes"/>
      <point x="696" y="1264"/>
      <point x="666" y="1340"/>
      <point x="615" y="1384" type="curve" smooth="yes"/>
      <point x="564" y="1429"/>
      <point x="493" y="1454"/>
      <point x="399" y="1454" type="curve" smooth="yes"/>
    </contour>
    <contour>
      <point x="470" y="929"/>
      <point x="456" y="891"/>
      <point x="433" y="860" type="curve" smooth="yes"/>
      <point x="405" y="826"/>
      <point x="370" y="807"/>
      <point x="326" y="807" type="curve" smooth="yes"/>
      <point x="281" y="807"/>
      <point x="263" y="840"/>
      <point x="266" y="872" type="curve" smooth="yes"/>
      <point x="268" y="899"/>
      <point x="284" y="924"/>
      <point x="317" y="942" type="curve" smooth="yes"/>
      <point x="354" y="960"/>
      <point x="408" y="970"/>
      <point x="475" y="974" type="curve"/>
    </contour>
  </outline>
</glyph>
<glyph name="guillemotleft" format="1">
  <advance width="845"/>
  <unicode hex="00AB"/>
  <outline>
    <contour>
      <point x="250" y="932" type="line"/>
      <point x="42" y="669" type="line"/>
      <point x="42" y="548" type="line"/>
      <point x="251" y="295" type="line"/>
      <point x="508" y="295" type="line"/>
      <point x="272" y="609" type="line"/>
      <point x="508" y="932" type="line"/>
    </contour>
    <contour>
      <point x="588" y="931" type="line"/>
      <point x="380" y="669" type="line"/>
      <point x="380" y="548" type="line"/>
      <point x="589" y="296" type="line"/>
      <point x="841" y="296" type="line"/>
      <point x="607" y="608" type="line"/>
      <point x="841" y="931" type="line"/>
    </contour>
  </outline>
</glyph>
<glyph name="uni00AD" format="1">
  <advance width="992"/>
  <unicode hex="00AD"/>
  <outline>
    <contour>
      <point x="84" y="537" type="line"/>
      <point x="907" y="537" type="line"/>
      <point x="907" y="764" type="line"/>
      <point x="84" y="764" type="line"/>
    </contour>
  </outline>
</glyph>
<glyph name="registered" format="1">
  <advance width="1366"/>
  <unicode hex="00AE"/>
  <outline>
    <contour>
      <point x="296" y="1508"/>
      <point x="99" y="1287"/>
      <point x="76" y="909" type="curve" smooth="yes"/>
      <point x="76" y="565"/>
      <point x="319" y="294"/>
      <point x="682" y="294" type="curve" smooth="yes"/>
      <point x="1037" y="294"/>
      <point x="1290" y="562"/>
      <point x="1290" y="909" type="curve" smooth="yes"/>
      <point x="1290" y="1253"/>
      <point x="1071" y="1508"/>
      <point x="683" y="1508" type="curve" smooth="yes"/>
    </contour>
    <contour>
      <point x="958" y="1351"/>
      <point x="1126" y="1168"/>
      <point x="1126" y="906" type="curve" smooth="yes"/>
      <point x="1126" y="646"/>
      <point x="945" y="448"/>
      <point x="685" y="448" type="curve" smooth="yes"/>
      <point x="428" y="448"/>
      <point x="244" y="646"/>
      <point x="244" y="906" type="curve" smooth="yes"/>
      <point x="244" y="907" type="line" smooth="yes"/>
      <point x="244" y="1169"/>
      <point x="408" y="1351"/>
      <point x="685" y="1351" type="curve" smooth="yes"/>
    </contour>
    <contour>
      <point x="397" y="1258" type="line"/>
      <point x="397" y="1109" type="line"/>
      <point x="452" y="1109" type="line"/>
      <point x="452" y="571" type="line"/>
      <point x="611" y="571" type="line"/>
      <point x="611" y="815" type="line"/>
      <point x="655" y="815" type="line" smooth="yes"/>
      <point x="692" y="815"/>
      <point x="699" y="818"/>
      <point x="712" y="786" type="curve" smooth="yes"/>
      <point x="783" y="618" type="line" smooth="yes"/>
      <point x="796" y="587"/>
      <point x="824" y="570"/>
      <point x="855" y="570" type="curve" smooth="yes"/>
      <point x="985" y="570" type="line"/>
      <point x="982" y="720" type="line"/>
      <point x="913" y="720" type="line"/>
      <point x="862" y="831" type="line" smooth="yes"/>
      <point x="857" y="843"/>
      <point x="852" y="854"/>
      <point x="845" y="863" type="curve"/>
      <point x="889" y="898"/>
      <point x="919" y="957"/>
      <point x="919" y="1035" type="curve" smooth="yes"/>
      <point x="919" y="1181"/>
      <point x="840" y="1258"/>
      <point x="682" y="1258" type="curve" smooth="yes"/>
    </contour>
    <contour>
      <point x="736" y="1109"/>
      <point x="764" y="1088"/>
      <point x="764" y="1035" type="curve" smooth="yes"/>
      <point x="764" y="984"/>
      <point x="736" y="962"/>
      <point x="685" y="962" type="curve" smooth="yes"/>
      <point x="615" y="962" type="line"/>
      <point x="615" y="1109" type="line"/>
      <point x="685" y="1109" type="line" smooth="yes"/>
    </contour>
  </outline>
</glyph>
<glyph name="degree" format="1">
  <advance width="869"/>
  <unicode hex="00B0"/>
  <outline>
    <contour>
      <point x="183" y="1453"/>
      <point x="46" y="1308"/>
      <point x="46" y="1040" type="curve" smooth="yes"/>
      <point x="46" y="761"/>
      <point x="263" y="619"/>
      <point x="439" y="619" type="curve" smooth="yes"/>
      <point x="686" y="619"/>
      <point x="824" y="768"/>
      <point x="824" y="1027" type="curve" smooth="yes"/>
      <point x="824" y="1292"/>
      <point x="669" y="1453"/>
      <point x="427" y="1453" type="curve" smooth="yes"/>
    </contour>
    <contour>
      <point x="541" y="1262"/>
      <point x="606" y="1164"/>
      <point x="606" y="1034" type="curve" smooth="yes"/>
      <point x="606" y="887"/>
      <point x="553" y="806"/>
      <point x="435" y="806" type="curve" smooth="yes"/>
      <point x="337" y="806"/>
      <point x="269" y="888"/>
      <point x="264" y="1018" type="curve"/>
      <point x="264" y="1183"/>
      <point x="317" y="1262"/>
      <point x="430" y="1262" type="curve" smooth="yes"/>
    </contour>
  </outline>
</glyph>
<glyph name="plusminus" format="1">
  <advance width="1107"/>
  <unicode hex="00B1"/>
  <outline>
    <contour>
      <point x="444" y="1113" type="line"/>
      <point x="444" y="800" type="line"/>
      <point x="133" y="800" type="line"/>
      <point x="133" y="584" type="line"/>
      <point x="444" y="584" type="line"/>
      <point x="444" y="269" type="line"/>
      <point x="662" y="269" type="line"/>
      <point x="662" y="584" type="line"/>
      <point x="972" y="584" type="line"/>
      <point x="972" y="800" type="line"/>
      <point x="662" y="800" type="line"/>
      <point x="662" y="1113" type="line"/>
    </contour>
    <contour>
      <point x="133" y="169" type="line"/>
      <point x="133" y="-47" type="line"/>
      <point x="974" y="-47" type="line"/>
      <point x="974" y="169" type="line"/>
    </contour>
  </outline>
</glyph>
<glyph name="uni00B9" format="1">
  <advance width="659"/>
  <unicode hex="00B9"/>
  <outline>
    <contour>
      <point x="230" y="680" type="line"/>
      <point x="465" y="680" type="line"/>
      <point x="465" y="1575" type="line"/>
      <point x="302" y="1575" type="line"/>
      <point x="33" y="1495" type="line"/>
      <point x="53" y="1302" type="line"/>
      <point x="230" y="1340" type="line"/>
    </contour>
  </outline>
</glyph>
<glyph name="threequarters" format="1">
  <advance width="1571"/>
  <unicode hex="00BE"/>
  <outline>
    <contour>
      <point x="938" y="1618" type="line"/>
      <point x="450" y="-126" type="line"/>
      <point x="684" y="-126" type="line"/>
      <point x="1171" y="1618" type="line"/>
    </contour>
    <contour>
      <point x="177" y="1534"/>
      <point x="64" y="1417"/>
      <point x="64" y="1246" type="curve"/>
      <point x="286" y="1246" type="line"/>
      <point x="286" y="1299"/>
      <point x="313" y="1331"/>
      <point x="360" y="1331" type="curve" smooth="yes"/>
      <point x="408" y="1331"/>
      <point x="438" y="1307"/>
      <point x="438" y="1269" type="curve" smooth="yes"/>
      <point x="438" y="1216"/>
      <point x="395" y="1180"/>
      <point x="315" y="1192" type="curve" smooth="yes"/>
      <point x="305" y="1194" type="line"/>
      <point x="305" y="1012" type="line"/>
      <point x="319" y="1012" type="line" smooth="yes"/>
      <point x="405" y="1012"/>
      <point x="456" y="991"/>
      <point x="456" y="932" type="curve" smooth="yes"/>
      <point x="456" y="886"/>
      <point x="418" y="865"/>
      <point x="362" y="865" type="curve" smooth="yes"/>
      <point x="308" y="865"/>
      <point x="276" y="898"/>
      <point x="276" y="952" type="curve"/>
      <point x="53" y="952" type="line"/>
      <point x="53" y="777"/>
      <point x="161" y="662"/>
      <point x="368" y="662" type="curve" smooth="yes"/>
      <point x="574" y="662"/>
      <point x="688" y="762"/>
      <point x="688" y="933" type="curve" smooth="yes"/>
      <point x="688" y="1008"/>
      <point x="650" y="1072"/>
      <point x="610" y="1109" type="curve"/>
      <point x="647" y="1151"/>
      <point x="674" y="1218"/>
      <point x="674" y="1285" type="curve" smooth="yes"/>
      <point x="674" y="1444"/>
      <point x="538" y="1534"/>
      <point x="367" y="1534" type="curve" smooth="yes"/>
    </contour>
    <contour>
      <point x="1223" y="332" type="line"/>
      <point x="1115" y="332" type="line"/>
      <point x="1223" y="563" type="line"/>
    </contour>
    <contour>
      <point x="1164" y="828" type="line"/>
      <point x="851" y="291" type="line"/>
      <point x="851" y="158" type="line"/>
      <point x="1223" y="158" type="line"/>
      <point x="1223" y="-1" type="line"/>
      <point x="1441" y="-1" type="line"/>
      <point x="1441" y="158" type="line"/>
      <point x="1526" y="158" type="line"/>
      <point x="1526" y="332" type="line"/>
      <point x="1441" y="332" type="line"/>
      <point x="1441" y="828" type="line"/>
    </contour>
  </outline>
</glyph>
<glyph name="AE" format="1">
  <advance width="1802"/>
  <unicode hex="00C6"/>
  <outline>
    <contour>
      <point x="828" y="1432" type="line"/>
      <point x="199" y="168" type="line"/>
      <point x="51" y="168" type="line"/>
      <point x="51" y="-47" type="line"/>
      <point x="241" y="-47" type="line" smooth="yes"/>
      <point x="268" y="-47"/>
      <point x="292" y="-41"/>
      <point x="313" y="-29" type="curve" smooth="yes"/>
      <point x="335" y="-17"/>
      <point x="352" y="2"/>
      <point x="365" y="28" type="curve" smooth="yes"/>
      <point x="552" y="394" type="line"/>
      <point x="878" y="394" type="line"/>
      <point x="878" y="-47" type="line"/>
      <point x="1640" y="-47" type="line" smooth="yes"/>
      <point x="1676" y="-47"/>
      <point x="1701" y="-36"/>
      <point x="1718" y="-19" type="curve" smooth="yes"/>
      <point x="1736" y="-1"/>
      <point x="1747" y="24"/>
      <point x="1747" y="59" type="curve" smooth="yes"/>
      <point x="1747" y="289" type="line"/>
      <point x="1525" y="289" type="line"/>
      <point x="1525" y="169" type="line"/>
      <point x="1102" y="169" type="line"/>
      <point x="1102" y="596" type="line"/>
      <point x="1640" y="596" type="line"/>
      <point x="1640" y="811" type="line"/>
      <point x="1102" y="811" type="line"/>
      <point x="1102" y="1218" type="line"/>
      <point x="1525" y="1218" type="line"/>
      <point x="1525" y="1097" type="line"/>
      <point x="1747" y="1097" type="line"/>
      <point x="1747" y="1327" type="line" smooth="yes"/>
      <point x="1747" y="1362"/>
      <point x="1736" y="1387"/>
      <point x="1719" y="1404" type="curve" smooth="yes"/>
      <point x="1703" y="1420"/>
      <point x="1679" y="1432"/>
      <point x="1643" y="1432" type="curve" smooth="yes"/>
    </contour>
    <contour>
      <point x="878" y="608" type="line"/>
      <point x="655" y="608" type="line"/>
      <point x="877" y="1068" type="line"/>
      <point x="878" y="1068" type="line"/>
    </contour>
  </outline>
</glyph>
<glyph name="multiply" format="1">
  <advance width="1107"/>
  <unicode hex="00D7"/>
  <outline>
    <contour>
      <point x="554" y="891" type="line"/>
      <point x="300" y="1145" type="line"/>
      <point x="147" y="993" type="line"/>
      <point x="400" y="739" type="line"/>
      <point x="147" y="482" type="line"/>
      <point x="300" y="331" type="line"/>
      <point x="554" y="586" type="line"/>
      <point x="807" y="331" type="line"/>
      <point x="963" y="482" type="line"/>
      <point x="707" y="739" type="line"/>
      <point x="963" y="994" type="line"/>
      <point x="807" y="1145" type="line"/>
    </contour>
  </outline>
</glyph>
<glyph name="dotlessi" format="1">
  <advance width="690"/>
  <unicode hex="0131"/>
  <outline>
    <contour>
      <point x="80" y="1135" type="line"/>
      <point x="80" y="909" type="line"/>
      <point x="212" y="909" type="line"/>
      <point x="212" y="206" type="line" smooth="yes"/>
      <point x="212" y="30"/>
      <point x="274" y="-51"/>
      <point x="425" y="-51" type="curve" smooth="yes"/>
      <point x="606" y="-51" type="line"/>
      <point x="606" y="175" type="line"/>
      <point x="485" y="175" type="line" smooth="yes"/>
      <point x="456" y="175"/>
      <point x="450" y="188"/>
      <point x="450" y="217" type="curve" smooth="yes"/>
      <point x="450" y="1019" type="line" smooth="yes"/>
      <point x="450" y="1056"/>
      <point x="437" y="1084"/>
      <point x="418" y="1103" type="curve" smooth="yes"/>
      <point x="399" y="1122"/>
      <point x="371" y="1135"/>
      <point x="334" y="1135" type="curve" smooth="yes"/>
    </contour>
  </outline>
</glyph>
<glyph name="IJ" format="1">
  <advance width="1030"/>
  <unicode hex="0132"/>
  <outline>
    <contour>
      <point x="624" y="1463" type="line"/>
      <point x="624" y="1248" type="line"/>
      <point x="766" y="1248" type="line"/>
      <point x="766" y="373" type="line" smooth="yes"/>
      <point x="766" y="254"/>
      <point x="713" y="198"/>
      <point x="608" y="198" type="curve" smooth="yes"/>
      <point x="507" y="198"/>
      <point x="428" y="262"/>
      <point x="428" y="372" type="curve" smooth="yes"/>
      <point x="428" y="456" type="line"/>
      <point x="206" y="460" type="line"/>
      <point x="206" y="366" type="line" smooth="yes"/>
      <point x="206" y="119"/>
      <point x="374" y="-19"/>
      <point x="616" y="-19" type="curve" smooth="yes"/>
      <point x="858" y="-19"/>
      <point x="997" y="113"/>
      <point x="996" y="366" type="curve" smooth="yes"/>
      <point x="996" y="1356" type="line" smooth="yes"/>
      <point x="996" y="1428"/>
      <point x="965" y="1463"/>
      <point x="885" y="1463" type="curve" smooth="yes"/>
    </contour>
    <contour>
      <point x="82" y="1463" type="line"/>
      <point x="82" y="1248" type="line"/>
      <point x="208" y="1248" type="line"/>
      <point x="208" y="726" type="line"/>
      <point x="82" y="726" type="line"/>
      <point x="82" y="512" type="line"/>
      <point x="564" y="512" type="line"/>
      <point x="564" y="726" type="line"/>
      <point x="438" y="726" type="line"/>
      <point x="438" y="1248" type="line"/>
      <point x="564" y="1248" type="line"/>
      <point x="564" y="1463" type="line"/>
    </contour>
  </outline>
</glyph>
<glyph name="lslash" format="1">
  <advance width="698"/>
  <unicode hex="0142"/>
  <outline>
    <contour>
      <point x="92" y="1597" type="line"/>
      <point x="92" y="1371" type="line"/>
      <point x="224" y="1371" type="line"/>
      <point x="224" y="948" type="line"/>
      <point x="40" y="874" type="line"/>
      <point x="40" y="623" type="line"/>
      <point x="224" y="697" type="line"/>
      <point x="224" y="261" type="line" smooth="yes"/>
      <point x="224" y="158"/>
      <point x="244" y="93"/>
      <point x="274" y="59" type="curve" smooth="yes"/>
      <point x="299" y="31"/>
      <point x="336" y="11"/>
      <point x="388" y="4" type="curve"/>
      <point x="388" y="-1" type="line"/>
      <point x="640" y="-1" type="line"/>
      <point x="640" y="225" type="line"/>
      <point x="499" y="225" type="line" smooth="yes"/>
      <point x="483" y="225"/>
      <point x="470" y="226"/>
      <point x="461" y="231" type="curve" smooth="yes"/>
      <point x="455" y="236"/>
      <point x="462" y="251"/>
      <point x="462" y="261" type="curve" smooth="yes"/>
      <point x="462" y="792" type="line"/>
      <point x="658" y="871" type="line"/>
      <point x="658" y="1122" type="line"/>
      <point x="462" y="1043" type="line"/>
      <point x="462" y="1482" type="line" smooth="yes"/>
      <point x="462" y="1519"/>
      <point x="451" y="1545"/>
      <point x="434" y="1564" type="curve" smooth="yes"/>
      <point x="416" y="1584"/>
      <point x="390" y="1597"/>
      <point x="350" y="1597" type="curve" smooth="yes"/>
    </contour>
  </outline>
</glyph>
<glyph name="Eng" format="1">
  <advance width="1584"/>
  <unicode hex="014A"/>
  <outline>
    <contour>
      <point x="1050" y="-102" type="line" smooth="yes"/>
      <point x="1050" y="-215"/>
      <point x="1017" y="-302"/>
      <point x="906" y="-302" type="curve" smooth="yes"/>
      <point x="851" y="-302"/>
      <point x="809" y="-295"/>
      <point x="705" y="-266" type="curve"/>
      <point x="650" y="-484" type="line"/>
      <point x="769" y="-516"/>
      <point x="833" y="-529"/>
      <point x="924" y="-529" type="curve" smooth="yes"/>
      <point x="1115" y="-529"/>
      <point x="1288" y="-393"/>
      <point x="1288" y="-137" type="curve" smooth="yes"/>
      <point x="1288" y="103" type="line"/>
      <point x="1050" y="113" type="line"/>
    </contour>
    <component base="N"/>
  </outline>
</glyph>
<glyph name="breve" format="1">
  <advance width="806"/>
  <unicode hex="02D8"/>
  <outline>
    <contour>
      <point x="486" y="1528" type="line"/>
      <point x="486" y="1416"/>
      <point x="470" y="1388"/>
      <point x="400" y="1388" type="curve" smooth="yes"/>
      <point x="331" y="1388"/>
      <point x="317" y="1416"/>
      <point x="317" y="1526" type="curve"/>
      <point x="116" y="1526" type="line"/>
      <point x="116" y="1281"/>
      <point x="213" y="1173"/>
      <point x="405" y="1173" type="curve" smooth="yes"/>
      <point x="594" y="1173"/>
      <point x="688" y="1269"/>
      <point x="688" y="1528" type="curve"/>
    </contour>
    <contour>
      <point x="389" y="1084" type="move" name="_top"/>
    </contour>
  </outline>
</glyph>
<glyph name="ogonek" format="1">
  <advance width="630"/>
  <unicode hex="02DB"/>
  <outline>
    <contour>
      <point x="193" y="122"/>
      <point x="40" y="-22"/>
      <point x="40" y="-216" type="curve"/>
      <point x="40" y="-357"/>
      <point x="131" y="-455"/>
      <point x="268" y="-455" type="curve" smooth="yes"/>
      <point x="413" y="-455"/>
      <point x="509" y="-379"/>
      <point x="587" y="-214" type="curve"/>
      <point x="439" y="-119" type="line"/>
      <point x="382" y="-220"/>
      <point x="352" y="-257"/>
      <point x="289" y="-257" type="curve" smooth="yes"/>
      <point x="255" y="-257"/>
      <point x="233" y="-238"/>
      <point x="233" y="-201" type="curve" smooth="yes"/>
      <point x="233" y="-106"/>
      <point x="318" y="-47"/>
      <point x="504" y="-48" type="curve"/>
      <point x="510" y="122" type="line"/>
    </contour>
    <contour>
      <point x="460" y="33" type="move" name="_ogonek"/>
    </contour>
  </outline>
</glyph>
<glyph name="tilde" format="1">
  <advance width="793"/>
  <unicode hex="02DC"/>
  <outline>
    <contour>
      <point x="569" y="1491"/>
      <point x="564" y="1475"/>
      <point x="559" y="1460" type="curve" smooth="yes"/>
      <point x="551" y="1431"/>
      <point x="540" y="1409"/>
      <point x="517" y="1409" type="curve" smooth="yes"/>
      <point x="508" y="1409"/>
      <point x="459" y="1427"/>
      <point x="414" y="1441" type="curve" smooth="yes"/>
      <point x="350" y="1461"/>
      <point x="285" y="1476"/>
      <point x="261" y="1476" type="curve" smooth="yes"/>
      <point x="210" y="1476"/>
      <point x="166" y="1457"/>
      <point x="129" y="1417" type="curve" smooth="yes"/>
      <point x="91" y="1377"/>
      <point x="72" y="1338"/>
      <point x="39" y="1217" type="curve"/>
      <point x="219" y="1163" type="line"/>
      <point x="237" y="1231"/>
      <point x="240" y="1237"/>
      <point x="252" y="1249" type="curve" smooth="yes"/>
      <point x="258" y="1255"/>
      <point x="266" y="1257"/>
      <point x="275" y="1257" type="curve" smooth="yes"/>
      <point x="286" y="1257"/>
      <point x="344" y="1237"/>
      <point x="403" y="1219" type="curve" smooth="yes"/>
      <point x="454" y="1203"/>
      <point x="506" y="1188"/>
      <point x="529" y="1188" type="curve" smooth="yes"/>
      <point x="582" y="1188"/>
      <point x="628" y="1208"/>
      <point x="664" y="1249" type="curve" smooth="yes"/>
      <point x="691" y="1281"/>
      <point x="715" y="1325"/>
      <point x="752" y="1449" type="curve"/>
      <point x="573" y="1506" type="line"/>
    </contour>
    <contour>
      <point x="373" y="1084" type="move" name="_top"/>
    </contour>
  </outline>
</glyph>
<glyph name="emdash" format="1">
  <advance width="1718"/>
  <unicode hex="2014"/>
  <outline>
    <contour>
      <point x="78" y="503" type="line"/>
      <point x="1638" y="503" type="line"/>
      <point x="1638" y="702" type="line"/>
      <point x="78" y="702" type="line"/>
    </contour>
  </outline>
</glyph>
<glyph name="quotesinglbase" format="1">
  <advance width="497"/>
  <unicode hex="201A"/>
  <outline>
    <contour>
      <point x="166" y="241"/>
      <point x="92" y="200"/>
      <point x="92" y="91" type="curve" smooth="yes"/>
      <point x="92" y="15"/>
      <point x="132" y="-17"/>
      <point x="132" y="-64" type="curve" smooth="yes"/>
      <point x="132" y="-103"/>
      <point x="106" y="-125"/>
      <point x="23" y="-200" type="curve"/>
      <point x="133" y="-316" type="line"/>
      <point x="228" y="-244"/>
      <point x="268" y="-210"/>
      <point x="319" y="-134" type="curve" smooth="yes"/>
      <point x="376" y="-51"/>
      <point x="392" y="14"/>
      <point x="392" y="70" type="curve" smooth="yes"/>
      <point x="392" y="216"/>
      <point x="299" y="241"/>
      <point x="243" y="241" type="curve" smooth="yes"/>
    </contour>
  </outline>
</glyph>
<glyph name="quotedblright" format="1">
  <advance width="751"/>
  <unicode hex="201D"/>
  <outline>
    <contour>
      <point x="175" y="1495"/>
      <point x="101" y="1454"/>
      <point x="101" y="1345" type="curve" smooth="yes"/>
      <point x="101" y="1269"/>
      <point x="142" y="1237"/>
      <point x="142" y="1190" type="curve" smooth="yes"/>
      <point x="142" y="1151"/>
      <point x="116" y="1129"/>
      <point x="32" y="1054" type="curve"/>
      <point x="143" y="938" type="line"/>
      <point x="237" y="1010"/>
      <point x="277" y="1044"/>
      <point x="329" y="1120" type="curve" smooth="yes"/>
      <point x="385" y="1203"/>
      <point x="401" y="1268"/>
      <point x="401" y="1324" type="curve" smooth="yes"/>
      <point x="401" y="1470"/>
      <point x="308" y="1495"/>
      <point x="252" y="1495" type="curve" smooth="yes"/>
    </contour>
    <contour>
      <point x="492" y="1495"/>
      <point x="418" y="1454"/>
      <point x="418" y="1345" type="curve" smooth="yes"/>
      <point x="418" y="1269"/>
      <point x="458" y="1237"/>
      <point x="458" y="1190" type="curve" smooth="yes"/>
      <point x="458" y="1151"/>
      <point x="432" y="1129"/>
      <point x="349" y="1054" type="curve"/>
      <point x="459" y="938" type="line"/>
      <point x="554" y="1010"/>
      <point x="594" y="1044"/>
      <point x="645" y="1120" type="curve" smooth="yes"/>
      <point x="702" y="1203"/>
      <point x="718" y="1268"/>
      <point x="718" y="1324" type="curve" smooth="yes"/>
      <point x="718" y="1470"/>
      <point x="625" y="1495"/>
      <point x="569" y="1495" type="curve" smooth="yes"/>
    </contour>
  </outline>
</glyph>
<glyph name="daggerdbl" format="1">
  <advance width="838"/>
  <unicode hex="2021"/>
  <outline>
    <contour>
      <point x="300" y="-47" type="line"/>
      <point x="538" y="-47" type="line"/>
      <point x="538" y="253" type="line"/>
      <point x="849" y="253" type="line"/>
      <point x="849" y="474" type="line"/>
      <point x="538" y="474" type="line"/>
      <point x="538" y="910" type="line"/>
      <point x="849" y="910" type="line"/>
      <point x="849" y="1132" type="line"/>
      <point x="538" y="1132" type="line"/>
      <point x="538" y="1432" type="line"/>
      <point x="300" y="1432" type="line"/>
      <point x="300" y="1132" type="line"/>
      <point x="-11" y="1132" type="line"/>
      <point x="-11" y="910" type="line"/>
      <point x="300" y="910" type="line"/>
      <point x="300" y="474" type="line"/>
      <point x="-11" y="474" type="line"/>
      <point x="-11" y="253" type="line"/>
      <point x="300" y="253" type="line"/>
    </contour>
  </outline>
</glyph>
<glyph name="bullet" format="1">
  <advance width="607"/>
  <unicode hex="2022"/>
  <outline>
    <contour>
      <point x="198" y="832"/>
      <point x="101" y="735"/>
      <point x="101" y="631" type="curve"/>
      <point x="101" y="531"/>
      <point x="193" y="428"/>
      <point x="304" y="428" type="curve" smooth="yes"/>
      <point x="403" y="428"/>
      <point x="504" y="520"/>
      <point x="504" y="631" type="curve" smooth="yes"/>
      <point x="504" y="740"/>
      <point x="413" y="832"/>
      <point x="304" y="832" type="curve" smooth="yes"/>
    </contour>
  </outline>
</glyph>
<glyph name="ellipsis" format="1">
  <advance width="1491"/>
  <unicode hex="2026"/>
  <outline>
    <contour>
      <point x="1158" y="241"/>
      <point x="1092" y="170"/>
      <point x="1092" y="87" type="curve"/>
      <point x="1092" y="4"/>
      <point x="1158" y="-63"/>
      <point x="1242" y="-63" type="curve" smooth="yes"/>
      <point x="1325" y="-63"/>
      <point x="1395" y="4"/>
      <point x="1395" y="87" type="curve" smooth="yes"/>
      <point x="1395" y="166"/>
      <point x="1343" y="241"/>
      <point x="1242" y="241" type="curve" smooth="yes"/>
    </contour>
    <contour>
      <point x="165" y="241"/>
      <point x="98" y="170"/>
      <point x="98" y="87" type="curve"/>
      <point x="98" y="4"/>
      <point x="165" y="-63"/>
      <point x="248" y="-63" type="curve" smooth="yes"/>
      <point x="332" y="-63"/>
      <point x="402" y="4"/>
      <point x="402" y="87" type="curve" smooth="yes"/>
      <point x="402" y="166"/>
      <point x="349" y="241"/>
      <point x="248" y="241" type="curve" smooth="yes"/>
    </contour>
    <contour>
      <point x="662" y="241"/>
      <point x="595" y="170"/>
      <point x="595" y="87" type="curve"/>
      <point x="595" y="4"/>
      <point x="662" y="-63"/>
      <point x="745" y="-63" type="curve" smooth="yes"/>
      <point x="829" y="-63"/>
      <point x="899" y="4"/>
      <point x="899" y="87" type="curve" smooth="yes"/>
      <point x="899" y="166"/>
      <point x="846" y="241"/>
      <point x="745" y="241" type="curve" smooth="yes"/>
    </contour>
  </outline>
</glyph>
<glyph name="glyph00229" format="1">
  <advance width="721"/>
  <outline>
    <contour>
      <point x="-16" y="639" type="line"/>
      <point x="792" y="639" type="line"/>
      <point x="792" y="854" type="line"/>
      <point x="-16" y="854" type="line"/>
    </contour>
  </outline>
</glyph>
